<svg width="22" height="29" viewBox="0 0 22 29" fill="none" xmlns="http://www.w3.org/2000/svg">
<path d="M1.34283 22.6693H21C20.5178 21.7992 20.0926 20.8991 19.727 19.9745C19.3676 18.9354 19.4001 12.604 19.4001 12.604C19.4001 12.604 19.4327 5.03823 10.8462 4.90852C2.25977 4.77881 2.52131 13.6106 2.52131 13.6106V20.5913L1.34283 22.6693Z" stroke="black" stroke-width="2" stroke-linecap="round" stroke-linejoin="round"/>
<path d="M8.19858 25.0847H13.5829C13.5496 25.7725 13.2511 26.4211 12.7499 26.8961C12.2487 27.3711 11.5829 27.6361 10.8906 27.6361C10.1982 27.6361 9.53242 27.3711 9.0312 26.8961C8.52999 26.4211 8.23189 25.7725 8.19858 25.0847V25.0847Z" stroke="black" stroke-width="2" stroke-linecap="round" stroke-linejoin="round"/>
<path d="M13.5823 4.36206L8.19815 4.36206C8.18956 4.01361 8.25426 3.66723 8.3881 3.34509C8.52195 3.02296 8.72198 2.73218 8.97539 2.4914C9.22881 2.25062 9.53 2.06515 9.85968 1.94686C10.1894 1.82857 10.5403 1.78009 10.8899 1.8045C11.2389 1.78275 11.5887 1.83307 11.9172 1.95231C12.2458 2.07155 12.5459 2.25713 12.7988 2.49736C13.0517 2.73759 13.2519 3.02728 13.3867 3.34819C13.5216 3.66911 13.5881 4.01431 13.5823 4.36206V4.36206Z" stroke="black" stroke-width="2" stroke-linecap="round" stroke-linejoin="round"/>
</svg>
