<svg width="25" height="24" viewBox="0 0 25 24" fill="none" xmlns="http://www.w3.org/2000/svg">
<path d="M21.8741 0H3.12488C1.40375 0 0 1.3547 0 2.97327V16.5014C0 18.1624 1.40375 19.4747 3.12488 19.4747H7.81219V23.4318C7.81219 23.8953 8.35026 24.1646 8.74575 23.8889L14.8441 19.4747H21.8751C23.5962 19.4747 25 18.12 25 16.5014V2.97327C24.999 1.3547 23.6368 0 21.8741 0ZM22.6993 16.5862C22.6993 16.9985 22.3453 17.3402 21.9181 17.3402H14.1059L10.1998 20.1674V17.3402H3.16882C2.74159 17.3402 2.3876 16.9985 2.3876 16.5862V3.01568C2.3876 2.60338 2.74159 2.26176 3.16882 2.26176H21.9181C22.3453 2.26176 22.6993 2.60338 22.6993 3.01568V16.5862Z" fill="black"/>
</svg>
