<?xml version="1.0" standalone="no"?>
<!DOCTYPE svg PUBLIC "-//W3C//DTD SVG 20010904//EN"
 "http://www.w3.org/TR/2001/REC-SVG-20010904/DTD/svg10.dtd">
<svg version="1.0" xmlns="http://www.w3.org/2000/svg"
 width="300.000000pt" height="300.000000pt" viewBox="0 0 300.000000 300.000000"
 preserveAspectRatio="xMidYMid meet">
<metadata>
Created by potrace 1.10, written by Peter Selinger 2001-2011
</metadata>
<g transform="translate(0.000000,300.000000) scale(0.100000,-0.100000)"
fill="#000000" stroke="none">
<path d="M1295 2864 c-287 -45 -565 -185 -769 -390 -255 -254 -406 -617 -406
-974 0 -357 151 -720 406 -974 412 -413 1038 -521 1561 -271 424 202 708 587
778 1050 63 420 -85 864 -391 1169 -306 307 -756 456 -1179 390z m475 -54
c571 -117 989 -576 1061 -1164 10 -87 8 -270 -4 -331 -3 -11 -8 -42 -12 -70
-4 -27 -24 -102 -45 -165 -67 -204 -171 -373 -324 -525 -183 -182 -385 -295
-641 -359 -145 -36 -410 -42 -555 -12 -275 57 -507 181 -700 375 -457 460
-518 1168 -147 1710 28 42 98 122 153 178 219 220 481 344 814 387 80 10 298
-3 400 -24z"/>
<path d="M1400 2714 c-312 -37 -547 -149 -756 -358 -185 -184 -295 -394 -345
-657 -16 -82 -16 -316 0 -398 49 -253 155 -463 326 -639 180 -188 388 -302
650 -358 96 -20 330 -23 424 -5 319 61 586 226 772 474 165 221 241 451 239
731 -1 335 -112 605 -345 842 -186 190 -379 295 -637 348 -77 16 -266 27 -328
20z m321 -60 c417 -79 765 -386 898 -793 73 -224 73 -498 0 -722 -116 -356
-402 -642 -758 -758 -224 -73 -498 -73 -722 0 -356 116 -642 402 -758 758 -58
178 -72 412 -34 591 108 507 509 876 1023 939 91 12 247 5 351 -15z"/>
</g>
</svg>
